<?xml version="1.0" encoding="utf-8"?>
<!-- Generator: Adobe Illustrator 18.1.1, SVG Export Plug-In . SVG Version: 6.00 Build 0)  -->
<svg version="1.1" id="Layer_1" xmlns="http://www.w3.org/2000/svg" xmlns:xlink="http://www.w3.org/1999/xlink" x="0px" y="0px"
	 viewBox="0 0 42 33.4" enable-background="new 0 0 42 33.4" xml:space="preserve">
<g>
	<g>
		<g>
			<path fill="#CCCCCC" d="M39.5,18.3H2.5c-0.8,0-1.5-0.7-1.5-1.5s0.7-1.5,1.5-1.5h36.9c0.8,0,1.5,0.7,1.5,1.5S40.3,18.3,39.5,18.3z
				"/>
		</g>
	</g>
	<g>
		<path fill="#CCCCCC" d="M23.4,32.6c-0.4,0-0.8-0.2-1.1-0.5c-0.6-0.6-0.5-1.6,0.1-2.2l14.8-13.2L22.4,3.5c-0.6-0.6-0.7-1.5-0.1-2.2
			c0.6-0.6,1.5-0.7,2.2-0.1l16,14.4c0.3,0.3,0.5,0.7,0.5,1.1c0,0.4-0.2,0.9-0.5,1.1l-16,14.4C24.2,32.5,23.8,32.6,23.4,32.6z"/>
	</g>
</g>
</svg>
