<?xml version="1.0" encoding="utf-8"?>
<!-- Generator: Adobe Illustrator 18.1.1, SVG Export Plug-In . SVG Version: 6.00 Build 0)  -->
<svg version="1.1" id="Layer_1" xmlns="http://www.w3.org/2000/svg" xmlns:xlink="http://www.w3.org/1999/xlink" x="0px" y="0px"
	 viewBox="0 0 80 99" enable-background="new 0 0 80 99" xml:space="preserve">
<g>
	<path fill="#A39161" d="M80,83.8c-0.1-1-0.2-2-0.5-3c-0.6-2-1.2-3.9-1.9-5.9c-1.6-4.7-3.4-9.3-5.4-13.9c-1.1-2.5-2.4-5-3.9-7.4
		c-1.5-2.3-3.1-4.6-4.8-6.7c-2.7-3.5-5.8-6.6-9.1-9.5c-3.8-3.2-7.9-5.9-12.3-8.3c-1.8-1-3.7-1.8-5.6-2.7c-0.3-0.1-0.3-0.1-0.2-0.4
		c0.6-1.3,1-2.7,1.3-4.1c0.5-1.8,0.8-3.5,0.8-5.4c0-0.8,0-1.5-0.1-2.3c-0.1-1.1-0.2-2.2-0.4-3.3c-0.4-2.4-1.1-4.7-2-6.9
		c-0.5-1.3-1.1-2.5-1.8-3.7c-0.2-0.3-0.2-0.3-0.5-0.1c0,0,0,0,0,0c-1.6,1.1-3.2,2.1-4.8,3.2c-0.3,0.2-0.5,0.2-0.8,0.1
		c-2.3-1-4.7-1.4-7.1-1.6c-1.5-0.1-3-0.1-4.5,0.1c-1.5,0.2-2.9,0.4-4.4,1c-0.3,0.1-0.7,0.2-1,0.3c-0.2,0.1-0.4,0.1-0.7-0.1
		C9,2.3,7.5,1.2,5.9,0.2C5.8,0.1,5.7,0.1,5.7,0c0,0-0.1,0-0.1,0C5.2,0.4,4.7,0.9,4.3,1.4C3.5,2.5,3,3.7,2.5,4.9
		C1.4,8,0.9,11.2,0.9,14.6c0,1.5,0,2.9,0.1,4.4c0.1,1.6,0.3,3.1,0.6,4.7c0.6,3.3,1.4,6.5,2.5,9.7c1.3,4,2.9,7.8,4.8,11.6
		c1.5,3,3.2,6,5.1,8.8c1.1,1.6,2.2,3.2,3.6,4.6c0.9,0.9,1.7,1.8,2.5,2.8c0.6,0.7,1,1.5,1.1,2.4c0.1,0.5,0.1,1,0.1,1.5
		c0,0.6,0,1.3-0.1,1.9c0,1-0.2,2.1-0.3,3.1c-0.1,1.1-0.3,2.3-0.4,3.4c-0.2,1.6-0.5,3.3-0.8,4.9c-0.1,0.6-0.3,1.3-0.2,2
		c0,0.3,0.1,0.5,0.4,0.7c0.3,0.2,0.5,0.3,0.8,0.4c0.6,0.2,1.1,0.4,1.7,0.6c0.3,0.1,0.4,0.2,0.3,0.5c-0.1,0.4-0.2,0.7-0.4,1.1
		c-1.1,1.9-2.1,3.9-3.2,5.8c-1,1.8-2,3.5-2.9,5.3c-0.2,0.3-0.3,0.4-0.7,0.4c-4.4,0-8.9,0-13.3,0c-0.6,0-0.5-0.1-0.7,0.5
		C1,96.7,0.5,97.8,0,99c16.6,0,33.3,0,49.9,0c-0.1-0.1-0.1-0.3-0.2-0.4c-0.4-1.1-0.8-2.1-1.2-3.2c-0.1-0.2-0.2-0.3-0.4-0.3
		c-0.1,0-0.2,0-0.2,0c-2.8,0-5.6,0-8.4,0c-0.1,0-0.3,0-0.4,0c0-0.2,0.1-0.3,0.1-0.5c0.8-2.1,1.5-4.2,2.2-6.3
		c0.6-1.7,1.2-3.3,1.9-4.9c0.1-0.2,0.2-0.3,0.5-0.3c0.6,0,1.3,0,1.9-0.1c0.5,0,1.1,0,1.6-0.1c0.3,0,0.3,0,0.3-0.3
		c0-0.1,0-0.3,0.1-0.4c0.3-1,0.4-2.1,0.7-3.2c0-0.2,0-0.4,0.2-0.6c0.1,0,0.1,0.1,0.1,0.1c1.3,1.3,2.6,2.5,3.7,3.9
		c1,1.2,2,2.3,2.9,3.5c0.6,0.9,1.3,1.8,2.1,2.6c1.6,1.6,3.6,2.5,5.9,2.5c1.6,0,3.1,0,4.7-0.2c1.5-0.2,2.9-0.5,4.3-1.1
		c0.4-0.2,0.8-0.3,1.2-0.6c0.2-0.2,0.4-0.4,0.3-0.7c-0.1-0.3-0.2-0.6-0.2-1c-0.4-1.3-0.9-2.7-1.4-4c0-0.1-0.1-0.2-0.1-0.4
		c0,0,0.1,0,0.1,0c1.2,0.6,2.4,1.3,3.6,1.9c1.2,0.7,2.5,1.3,3.7,1.9c0.1,0.1,0.3,0.2,0.5,0.1c0-0.1,0-0.1,0-0.2
		C80,85.8,80,84.8,80,83.8z M3.3,20.6C3.1,19.1,3,17.6,3,16c0.1-3.6,0.7-7.1,2-10.5c0.3-0.8,0.6-1.5,1-2.3C6.7,3.6,7.3,4,7.8,4.4
		c0.5,0.3,1,0.7,1.5,1c0.2,0.1,0.3,0.1,0.6,0.1c1.5-0.5,3-0.7,4.6-1c1.9-0.3,3.8-0.4,5.7-0.4c2,0.1,4,0.4,6,0.9
		c0.7,0.2,1.4,0.4,2,0.7c0.3,0.1,0.5,0.1,0.8,0c1.3-0.8,2.7-1.5,4.1-2.3c0,0,0.1,0,0.1-0.1c0.1,0.1,0.1,0.2,0.2,0.3
		c1.2,2.7,2,5.4,2.5,8.3c0.3,2.1,0.4,4.2,0.3,6.3c-0.1,1.8-0.4,3.6-1,5.3c-0.6,1.9-1.7,3.5-2.9,5c-2.2,2.6-5.1,4.2-8.5,4.8
		c-1.6,0.3-3.1,0.5-4.7,0.5c-1.4,0-2.8-0.2-4.2-0.5c-2.3-0.4-4.3-1.4-6.1-2.8c-1.5-1.2-2.6-2.6-3.6-4.3C4.2,24.5,3.6,22.6,3.3,20.6z
		 M21.7,80.1c-0.3-0.1-0.3-0.1-0.3-0.4c0.4-1.9,0.7-3.8,0.9-5.7c0.2-1.6,0.4-3.1,0.6-4.7c0.1-1.1,0.3-2.2,0.4-3.4
		c0-0.3,0.1-0.7,0.1-1.1c0.6,0.5,1.1,0.9,1.6,1.4c1.3,1.2,2.6,2.3,4,3.4c0.9,0.7,1.7,1.5,2.6,2.3c0.2,0.2,0.2,0.3,0.1,0.5
		c-0.2,1.1-0.4,2.3-0.6,3.4c-0.3,1.5-0.5,3-0.8,4.5c-0.1,0.5-0.2,1-0.3,1.6c-0.1,0.4-0.1,0.4-0.5,0.3c-1-0.2-1.9-0.5-2.8-0.8
		C25.2,81,23.4,80.6,21.7,80.1z M38.2,85.2c-0.7,1.5-1.2,3.1-1.9,4.6c-0.7,1.7-1.4,3.3-2.1,5c-0.1,0.2-0.2,0.3-0.4,0.3
		c-4.1,0-8.3,0-12.4,0c-0.1,0-0.1,0-0.2,0c0.1-0.3,0.2-0.6,0.4-0.8c1.2-2.4,2.4-4.7,3.6-7c0.5-1,1.1-1.9,1.6-2.9
		c0.4-0.7,1-0.9,1.8-0.8c0.8,0.1,1.6,0.2,2.4,0.3c0.3,0,0.3,0,0.4-0.3c0.4-1.5,0.8-3,1.1-4.6c0.1-0.5,0.3-1.1,0.4-1.6
		c0-0.1,0-0.2,0.1-0.2c0.3,0.6,0.6,1.2,0.8,1.8c0.5,1.4,1.1,2.8,1.6,4.1c0.1,0.3,0.1,0.4,0.5,0.3c0.8-0.1,1.6-0.1,2.4-0.2
		c0.1,0,0.3,0,0.4,0C38.7,83.9,38.5,84.5,38.2,85.2z M70.5,87.5c-1,0.4-2,0.6-3,0.8c-0.8,0.1-1.5,0.2-2.3,0.1
		c-1.3,0-2.6-0.2-3.9-0.7c-0.8-0.3-1.5-0.8-2.2-1.3c-0.8-0.7-1.4-1.4-2.1-2.2c-1.3-1.6-2.8-3.1-4.2-4.5c-1.9-1.9-3.7-3.9-5.6-5.9
		c-0.5-0.5-0.9-1-1.4-1.5c-0.1,0.1-0.1,0.3-0.1,0.4c0,2.7,0,5.3,0,8c0,0.5,0,0.5-0.5,0.5c-2.5,0-5,0-7.5,0c-0.5,0-0.4,0-0.5-0.4
		c-1-3.1-1.9-6.1-3-9.1c-0.3-0.9-0.7-1.8-1.3-2.5c-0.2-0.2-0.4-0.4-0.7-0.6c-1.7-1.3-3.4-2.6-5-3.9c-1.6-1.3-3.1-2.7-4.5-4.2
		c-3.6-3.7-6.7-7.8-9.5-12.2c-1.5-2.5-3-5-4.3-7.6C8,38,7,35.5,6.1,32.9c-0.5-1.4-0.9-2.8-1.3-4.2c0-0.1,0-0.2,0-0.2
		c0,0,0.1,0,0.1,0c1.4,2,3.1,3.7,5.1,5c1.6,1,3.4,1.9,5.3,2.3c1.7,0.3,3.4,0.4,5.1,0.3c1.2-0.1,2.4-0.2,3.6-0.6
		c2.4-0.7,4.6-1.8,6.6-3.3c1.1-0.8,2.2-1.7,3.1-2.7c0.1,0,0.1,0,0.1,0.1c-1,1.7-1.9,3.4-2.5,5.2c-0.7,2-1.2,4.1-1.4,6.2
		c-0.1,1.1-0.2,2.2-0.1,3.2c0.1,1.7,0.5,3.3,1,4.9c0.7,1.9,1.8,3.6,3,5.2c1.9,2.4,4.1,4.6,6.4,6.6c4.5,4,9.4,7.6,14.4,11
		c4.5,3.1,9,6.1,13.7,9c0.3,0.2,0.5,0.4,0.7,0.8c0.6,1.6,1.3,3.2,1.8,4.8c0.1,0.2,0.1,0.5,0.2,0.7C70.8,87.4,70.8,87.4,70.5,87.5z
		 M77.3,83c-0.6-0.3-1.2-0.6-1.8-1c-4.6-2.5-9.2-5.1-13.6-8c-4-2.6-8-5.3-11.8-8.2c-1.7-1.3-3.3-2.6-4.9-4.1
		c-1.4-1.2-2.8-2.4-4.1-3.6c-2.2-2-4.3-4.1-5.9-6.6c-0.8-1.3-1.6-2.6-2.1-4.1c-0.6-1.7-0.7-3.5-0.6-5.3c0.1-1.1,0.2-2.1,0.4-3.2
		c0.6-2.7,1.6-5.1,3.2-7.4c0.2-0.3,0.4-0.5,0.6-0.7c0.2-0.3,0.2-0.3,0.5-0.1c1.5,0.6,2.9,1.3,4.3,2c3.4,1.8,6.8,3.8,10,5.9
		c1.6,1.1,3,2.3,4.4,3.6c1.5,1.5,3,3,4.3,4.6c1.9,2.3,3.6,4.7,5.2,7.2c2.2,3.7,4.1,7.5,5.7,11.5c1.8,4.4,3.5,8.9,5,13.4
		c0.4,1.3,0.8,2.5,1.2,3.8C77.3,82.8,77.4,82.9,77.3,83z"/>
	<path fill="#D2CAB3" d="M33.7,29.4C33.6,29.4,33.6,29.3,33.7,29.4c0-0.2,0.1-0.3,0.2-0.4C33.8,29.2,33.8,29.3,33.7,29.4z"/>
	<path fill="#DBD4C1" d="M4.8,28.4C4.8,28.4,4.8,28.4,4.8,28.4c-0.1,0-0.2-0.1-0.1-0.1C4.8,28.3,4.8,28.4,4.8,28.4z"/>
	<path fill="#A39161" d="M32.1,13.1c-0.4-1.5-1.2-2.6-2.6-3.2c-0.7-0.3-1.4-0.4-2.2-0.4c-0.7,0-1.3,0-2,0.1
		c-0.7,0.1-1.4,0.2-2.1,0.4c-0.2,0.1-0.3,0.1-0.3,0.3c0,0.1,0,0.2-0.1,0.2c-1.2,4-2.4,8-3.6,12c0,0.1-0.1,0.3-0.2,0.5
		c-0.1-0.2-0.1-0.3-0.2-0.4c-1.2-4-2.5-8.1-3.7-12.1c-0.1-0.3-0.2-0.4-0.5-0.5c-0.9-0.2-1.8-0.4-2.6-0.4c-0.9-0.1-1.7-0.1-2.6,0.1
		c-1,0.2-1.8,0.7-2.4,1.5c-1.5,1.9-1.7,5.3,0.7,7.3c1.3,1.1,2.8,1.5,4.4,1.2c1.2-0.3,2.2-0.9,3-1.9c0.1-0.1,0.1-0.2,0.2-0.2
		c0,0.1,0.1,0.1,0.1,0.2c0.7,2.3,1.4,4.5,2.2,6.7c0.3,0.9,0.6,1.9,1,2.8c0.1,0.2,0.2,0.4,0.3,0.5c0.1,0.1,0.2,0.1,0.2,0
		c0.1-0.2,0.2-0.3,0.2-0.5c1.1-2.7,2-5.5,2.9-8.3c0.2-0.5,0.3-1,0.5-1.5c0.2,0.2,0.3,0.3,0.4,0.5c1,1.2,2.3,1.9,3.9,1.8
		c1.9-0.1,3.4-0.9,4.4-2.5C32.3,16,32.4,14.5,32.1,13.1z M14,14.4c0,1.7-1.5,3.1-3.2,3.1c-1.7,0-3.1-1.5-3.1-3.2
		c0-1.7,1.4-3.3,3.2-3.2C12.3,11.1,14,12.5,14,14.4z M30.4,14.4c0,1.7-1.5,3.2-3.3,3.2c-1.7,0-3.2-1.6-3.2-3.2
		c0-1.8,1.6-3.3,3.2-3.3C28.9,11.1,30.5,12.6,30.4,14.4z"/>
	<path fill="#A39161" d="M27.2,12c1.2-0.1,2.4,1,2.4,2.4c0,1.3-1.1,2.3-2.4,2.3c-1.2,0-2.3-1.1-2.3-2.3C24.9,12.9,26.1,11.9,27.2,12
		z"/>
	<path fill="#A39161" d="M8.5,14.3c0-1.3,1.1-2.4,2.5-2.3c1.2,0.1,2.2,1.1,2.2,2.4c0,1.2-1.1,2.3-2.3,2.3
		C9.5,16.7,8.5,15.6,8.5,14.3z"/>
</g>
</svg>
